<?xml version="1.0" standalone="no"?>
<!DOCTYPE svg PUBLIC "-//W3C//DTD SVG 20010904//EN"
 "http://www.w3.org/TR/2001/REC-SVG-20010904/DTD/svg10.dtd">
<svg version="1.0" xmlns="http://www.w3.org/2000/svg"
 width="360.000000pt" height="360.000000pt" viewBox="0 0 360.000000 360.000000"
 preserveAspectRatio="xMidYMid meet">

<g transform="translate(0.000000,360.000000) scale(0.100000,-0.100000)"
fill="#000000" stroke="none">
<path d="M2128 3372 l-328 -2 0 -110 0 -109 -112 -3 -113 -3 0 -110 0 -110
100 -2 c55 -1 106 -2 113 -3 9 0 12 -29 12 -110 l0 -110 110 0 110 0 0 -122
c0 -68 2 -184 4 -258 2 -74 5 -172 5 -217 l1 -83 110 0 110 0 0 -225 0 -225
228 2 227 3 2 108 1 108 134 3 c73 2 222 4 330 5 l197 1 3 113 3 112 113 3
112 3 0 109 0 109 -112 3 -113 3 -3 107 -3 107 -107 3 -107 3 -3 112 -3 112
-112 3 -112 3 -3 107 -3 107 -107 3 -107 3 -3 112 -3 112 -112 3 -112 3 -3
105 c-1 58 -6 107 -10 110 -4 3 -154 4 -334 2z"/>
<path d="M1139 2915 c0 0 -1 -46 -2 -103 l-2 -102 103 0 102 0 0 103 0 102
-100 0 c-55 0 -100 0 -101 0z m181 -90 l0 -65 -72 -2 -73 -2 80 -6 80 -6 -72
-2 c-39 -1 -78 -5 -87 -8 -14 -5 -16 5 -16 75 l0 81 80 0 80 0 0 -65z"/>
<path d="M448 2588 l-3 -113 -223 -3 -222 -2 0 -560 0 -559 113 -3 112 -3 5
-109 5 -108 105 -2 105 -1 3 -112 3 -112 112 -3 112 -3 5 -109 5 -108 105 -2
105 -1 3 -112 3 -112 112 -3 112 -3 5 -108 5 -107 330 -1 330 0 3 110 3 111
224 0 224 0 3 -111 3 -112 105 1 105 1 3 110 3 111 -111 0 -111 0 3 113 3 112
220 2 220 1 3 111 3 111 224 0 224 0 3 113 3 112 223 3 222 2 0 219 0 219
-219 7 c-121 4 -224 4 -231 0 -7 -4 -11 -41 -10 -103 1 -54 1 -102 1 -108 -1
-6 -23 -9 -58 -7 -32 2 -132 0 -223 -4 l-165 -8 -1 -105 -2 -105 -248 -6
c-137 -3 -286 -7 -331 -8 l-83 -1 0 -110 0 -109 -117 -3 -118 -3 -2 -103 c0
-57 -3 -105 -5 -106 -7 -7 -645 -14 -655 -8 -8 5 -12 45 -11 112 l0 105 -111
3 -110 3 -3 110 -3 111 -102 0 c-74 -1 -105 3 -113 13 -7 9 -10 49 -8 112 l3
98 -113 3 -112 3 2 222 3 222 107 3 107 3 3 -113 3 -113 113 -3 112 -3 0 -109
0 -110 110 0 109 0 3 -113 3 -112 225 0 225 0 3 104 c1 57 -1 108 -7 114 -5 5
-56 10 -112 10 l-104 2 -5 334 -5 334 -110 1 -110 1 -3 112 -3 112 -107 3
-107 3 -5 110 -5 110 -107 3 -107 3 -3 107 -3 107 -112 3 -112 3 -3 -113z"/>
<path d="M1360 2588 l0 -103 101 1 101 2 2 101 1 101 -102 0 -103 0 0 -102z
m180 68 c0 -3 0 -37 0 -76 l0 -70 -77 0 -78 0 2 77 c1 43 2 78 3 78 33 2 150
-4 150 -9z"/>
<path d="M1413 2643 c-9 -3 -13 -26 -13 -64 l0 -59 60 0 60 0 0 65 0 65 -47
-1 c-27 0 -54 -3 -60 -6z"/>
<path d="M1584 2241 c-5 -6 -5 -426 0 -432 2 -2 51 -3 108 -1 l103 3 -2 216
-2 216 -101 1 c-56 0 -104 -1 -106 -3z"/>
<path d="M1810 1473 c0 -178 -1 -326 -2 -330 -2 -5 45 -9 105 -11 l107 -3 -2
332 -3 331 -103 2 -102 1 0 -322z"/>
</g>
</svg>
